<svg width="264" height="277" viewBox="0 0 264 277" fill="none" xmlns="http://www.w3.org/2000/svg">
<path d="M122.001 13.0605C127.49 7.45934 136.51 7.45935 141.999 13.0605L251.894 125.195C257.124 130.532 257.241 139.037 252.159 144.516L142.264 262.993C136.724 268.965 127.275 268.965 121.735 262.993L11.8408 144.516C6.759 139.037 6.87606 130.533 12.1064 125.196L122.001 13.0605Z" stroke="#AA3BFF" stroke-width="4"/>
<path d="M122.697 45.016C127.344 40.5409 134.698 40.5409 139.345 45.016L224.789 127.3C229.597 131.93 229.702 139.594 225.023 144.355L139.579 231.292C134.877 236.077 127.165 236.077 122.462 231.292L37.0185 144.355C32.3395 139.594 32.4449 131.93 37.253 127.3L122.697 45.016Z" fill="#AA3BFF"/>
</svg>
